<?xml version="1.0" encoding="utf-8"?>
<!-- Generator: Adobe Illustrator 22.1.0, SVG Export Plug-In . SVG Version: 6.00 Build 0)  -->
<svg version="1.1" id="Calque_1" xmlns="http://www.w3.org/2000/svg" xmlns:xlink="http://www.w3.org/1999/xlink" x="0px" y="0px"
	 viewBox="0 0 10 10" style="enable-background:new 0 0 10 10;" xml:space="preserve">
<g>
	<g>
		<path d="M8.5,1.5C7.6,0.5,6.3,0,5,0S2.4,0.5,1.4,1.5c-1.8,1.8-2,4.8-0.3,6.7C1,8.5,0.7,8.9,0.3,9.1C0.1,9.2,0,9.4,0.1,9.6
			S0.3,9.9,0.5,10c0.1,0,0.2,0,0.4,0c0.4,0,1.1-0.1,1.8-0.6C3.4,9.8,4.2,10,5,10c1.3,0,2.6-0.5,3.5-1.5C9.5,7.6,10,6.3,10,5
			S9.5,2.4,8.5,1.5z M8.1,8.1C6.7,9.6,4.5,9.8,2.7,8.8c-0.1-0.1-0.3,0-0.3,0c0,0,0,0,0,0C1.8,9.3,1.2,9.4,0.9,9.4h0
			c0.4-0.3,0.7-0.8,0.9-1.1c0-0.1,0-0.1,0-0.2c0-0.1,0-0.1-0.1-0.2C0.1,6.2,0.2,3.5,1.8,1.9c1.7-1.7,4.5-1.7,6.3,0
			C9.8,3.6,9.8,6.4,8.1,8.1z"/>
		<circle cx="5" cy="5" r="0.4"/>
		<circle cx="6.8" cy="5" r="0.4"/>
		<circle cx="3.2" cy="5" r="0.4"/>
	</g>
</g>
</svg>
