<?xml version="1.0" encoding="utf-8"?>
<!-- Generator: Adobe Illustrator 22.1.0, SVG Export Plug-In . SVG Version: 6.00 Build 0)  -->
<svg version="1.1" id="Calque_1" xmlns="http://www.w3.org/2000/svg" xmlns:xlink="http://www.w3.org/1999/xlink" x="0px" y="0px"
	 viewBox="0 0 22 22" style="enable-background:new 0 0 22 22;" xml:space="preserve">
<style type="text/css">
	.st0{fill:#FFFFFF;}
</style>
<g>
	<path class="st0" d="M19.1,17.8l-3.4-3.8c0.9-1.2,1.5-2.6,1.6-4.1c0.1-1-0.1-2-0.4-2.9c-0.3-0.9-0.8-1.8-1.4-2.5
		c-0.6-0.7-1.4-1.3-2.3-1.7c-0.9-0.4-1.8-0.7-2.8-0.8c-1-0.1-2,0.1-2.9,0.4C6.6,2.7,5.8,3.2,5.1,3.8S3.8,5.2,3.4,6.1
		C2.9,7,2.7,7.9,2.6,8.9c-0.1,1,0.1,2,0.4,2.9c0.3,0.9,0.8,1.8,1.4,2.5C5,14.9,5.8,15.5,6.7,16c0.9,0.4,1.8,0.7,2.8,0.8
		c1.5,0.1,3-0.2,4.3-1l3.4,3.8c0.2,0.3,0.5,0.4,0.9,0.5c0.4,0,0.7-0.1,1-0.3c0.3-0.2,0.4-0.6,0.5-0.9C19.5,18.4,19.4,18,19.1,17.8
		 M13.1,12.9c-1,0.9-2.1,1.2-3.4,1.2c-1.3-0.1-2.4-0.6-3.2-1.6c-0.9-1-1.2-2.1-1.2-3.4c0.1-1.3,0.6-2.4,1.6-3.2
		C7.8,5,9,4.6,10.3,4.7c1.3,0.1,2.4,0.6,3.2,1.6c0.9,1,1.2,2.1,1.2,3.4C14.6,11,14,12,13.1,12.9"/>
	<path class="st0" d="M8.9,6.5h2v2h2v2h-2v2h-2v-2h-2v-2h2V6.5"/>
</g>
</svg>
